<?xml version="1.0" standalone="no"?>
<!DOCTYPE svg PUBLIC "-//W3C//DTD SVG 20010904//EN"
 "http://www.w3.org/TR/2001/REC-SVG-20010904/DTD/svg10.dtd">
<svg version="1.0" xmlns="http://www.w3.org/2000/svg"
 width="181.000000pt" height="51.000000pt" viewBox="0 0 181.000000 51.000000"
 preserveAspectRatio="xMidYMid meet">

<g transform="translate(0.000000,51.000000) scale(0.100000,-0.100000)"
fill="#fff" stroke="none">
<path d="M688 435 c-18 -25 -35 -45 -39 -45 -3 0 -30 5 -60 10 -72 14 -79 3
-39 -61 l34 -51 -27 -48 c-47 -83 -36 -99 49 -70 l58 20 48 -47 c57 -56 68
-51 68 37 l0 55 60 28 c34 15 58 32 55 37 -3 5 -30 16 -61 25 -61 18 -71 32
-75 109 -2 25 -6 46 -10 46 -10 0 1 -109 12 -132 5 -9 32 -24 61 -34 47 -15
50 -18 33 -30 -10 -8 -23 -14 -28 -14 -5 0 -22 -9 -38 -21 -26 -18 -29 -26
-29 -77 l0 -56 -44 43 -44 43 -48 -16 c-47 -16 -84 -21 -84 -11 0 3 13 29 30
58 l30 53 -36 53 -35 54 65 -6 65 -6 35 49 c20 28 34 50 31 50 -3 0 -20 -20
-37 -45z"/>
<path d="M383 397 c-46 -31 -104 -84 -143 -129 -36 -41 -66 -72 -68 -68 -2 5
8 31 22 59 43 85 29 94 -46 31 l-48 -41 30 63 c47 98 36 135 -30 108 -50 -21
-105 -100 -69 -100 5 0 7 4 4 10 -8 13 54 77 83 85 40 11 37 -21 -12 -122 -26
-53 -44 -98 -42 -101 3 -2 28 21 57 52 80 87 94 90 57 10 -24 -51 -28 -68 -18
-77 9 -9 18 -4 38 23 73 95 177 190 257 233 17 9 25 16 18 17 -7 0 -47 -24
-90 -53z"/>
<path d="M450 302 c-58 -91 -76 -126 -39 -79 l22 29 24 -29 24 -28 -16 34 c-9
18 -13 37 -8 40 4 4 21 17 37 29 31 24 28 29 -6 11 -21 -11 -21 -11 1 25 13
20 21 40 19 44 -2 5 -28 -30 -58 -76z"/>
<path d="M1130 353 c-14 -9 -49 -34 -78 -56 -29 -21 -75 -45 -103 -53 -60 -18
-122 -69 -100 -83 11 -7 9 -11 -9 -21 -12 -6 -24 -9 -27 -7 -9 10 9 49 40 84
27 31 28 34 9 24 -26 -14 -62 -68 -62 -93 0 -26 18 -31 53 -13 43 23 107 45
107 39 0 -3 -10 -20 -22 -36 -25 -35 -31 -108 -10 -116 11 -3 11 -1 1 16 -11
18 -9 28 11 72 13 29 35 60 47 70 13 10 23 24 23 30 0 9 -5 9 -17 -3 -19 -17
-86 -37 -68 -20 28 26 114 93 119 93 4 0 4 -6 0 -12 -4 -8 -3 -10 2 -5 5 5 9
12 9 15 0 13 16 32 27 32 6 0 5 -7 -3 -17 -8 -10 2 -4 21 12 20 17 47 38 60
47 33 22 4 23 -30 1z m-209 -154 c-51 -41 -80 -47 -47 -10 17 19 73 50 90 51
5 0 -15 -19 -43 -41z"/>
<path d="M1530 230 c-34 -56 -60 -104 -57 -107 3 -2 21 19 39 49 59 92 91 149
85 154 -2 3 -33 -41 -67 -96z"/>
<path d="M1145 260 c-27 -27 -56 -50 -63 -50 -22 0 -87 -39 -100 -61 -20 -31
13 -36 50 -9 24 17 30 19 25 7 -3 -9 -3 -19 2 -21 4 -3 13 10 19 28 7 18 41
61 76 95 35 33 59 61 52 61 -6 0 -34 -22 -61 -50z m-81 -85 c-33 -26 -74 -46
-74 -36 0 10 46 45 70 53 23 8 26 -1 4 -17z"/>
<path d="M323 282 c-45 -7 -99 -82 -58 -82 19 0 89 63 84 76 -2 5 -14 8 -26 6z
m9 -24 c-17 -20 -72 -50 -72 -39 0 13 50 51 68 51 10 0 12 -3 4 -12z"/>
<path d="M385 271 c-19 -8 -53 -57 -44 -64 2 -2 21 14 42 35 38 39 38 43 2 29z"/>
<path d="M1590 260 c0 -5 5 -10 11 -10 5 0 7 5 4 10 -3 6 -8 10 -11 10 -2 0
-4 -4 -4 -10z"/>
<path d="M1327 203 c-15 -15 -19 -16 -26 -4 -7 11 -14 3 -31 -28 -12 -24 -19
-45 -16 -48 2 -3 23 14 45 38 44 45 65 47 37 3 -10 -14 -15 -28 -12 -31 6 -7
46 57 46 75 0 18 -23 15 -43 -5z"/>
<path d="M1550 182 c-39 -58 -41 -62 -33 -62 12 1 65 79 61 90 -2 5 -14 -7
-28 -28z"/>
<path d="M1592 181 c-34 -60 -26 -69 21 -23 51 50 63 53 42 11 -9 -17 -14 -33
-11 -36 2 -3 14 13 25 35 25 49 12 64 -29 34 -27 -20 -28 -20 -23 -2 8 31 -1
24 -25 -19z"/>
<path d="M1178 204 c-4 -3 -14 -7 -25 -8 -16 -3 -61 -63 -52 -70 2 -1 23 17
46 41 24 24 41 43 39 43 -1 0 -5 -3 -8 -6z"/>
<path d="M1192 176 c-28 -26 -34 -38 -26 -46 7 -7 20 -10 30 -7 16 4 15 5 -4
6 -19 1 -21 4 -12 20 6 12 17 17 28 14 21 -5 56 23 47 38 -10 16 -24 10 -63
-25z m48 10 c0 -2 -7 -7 -16 -10 -8 -3 -12 -2 -9 4 6 10 25 14 25 6z"/>
<path d="M1403 190 c-28 -17 -53 -47 -53 -64 0 -10 39 -6 45 4 10 16 25 12 26
-7 0 -14 2 -15 6 -3 3 8 22 32 41 53 20 20 32 37 26 37 -5 0 -15 -5 -22 -12
-8 -8 -15 -8 -25 0 -10 8 -21 6 -44 -8z m27 -21 c-38 -30 -60 -41 -60 -30 0
14 50 51 69 51 12 0 10 -6 -9 -21z"/>
<path d="M1723 190 c-33 -20 -57 -53 -46 -64 9 -9 51 -7 57 3 3 4 -6 6 -19 3
-14 -2 -25 0 -25 5 0 16 22 32 36 26 17 -6 44 14 44 33 0 19 -9 18 -47 -6z
m22 -10 c-3 -5 -11 -10 -16 -10 -6 0 -7 5 -4 10 3 6 11 10 16 10 6 0 7 -4 4
-10z"/>
<path d="M988 23 c7 -3 16 -2 19 1 4 3 -2 6 -13 5 -11 0 -14 -3 -6 -6z"/>
</g>
</svg>
